<svg xmlns="http://www.w3.org/2000/svg" xmlns:xlink="http://www.w3.org/1999/xlink" width="500" zoomAndPan="magnify" viewBox="0 0 375 374.999991" height="500" preserveAspectRatio="xMidYMid meet" version="1.0"><defs><g/><clipPath id="f9f937ad7a"><rect x="0" width="373" y="0" height="368"/></clipPath></defs><g transform="matrix(1, 0, 0, 1, 0, 7)"><g clip-path="url(#f9f937ad7a)"><g fill="#bbdcff" fill-opacity="1"><g transform="translate(19.511909, 350.958511)"><g><path d="M 328.875 -309 C 331.226562 -309 333.285156 -308.113281 335.046875 -306.34375 C 336.816406 -304.582031 337.703125 -302.523438 337.703125 -300.171875 C 337.410156 -290.460938 336.96875 -273.394531 336.375 -248.96875 C 335.789062 -224.539062 335.5 -193.050781 335.5 -154.5 C 335.5 -116.238281 335.789062 -84.820312 336.375 -60.25 C 336.96875 -35.675781 337.410156 -18.535156 337.703125 -8.828125 C 337.703125 -6.472656 336.816406 -4.410156 335.046875 -2.640625 C 333.285156 -0.878906 331.226562 0 328.875 0 L 277.21875 0 C 274.863281 0 272.800781 -0.878906 271.03125 -2.640625 C 269.269531 -4.410156 268.535156 -6.472656 268.828125 -8.828125 C 269.128906 -18.535156 269.570312 -35.675781 270.15625 -60.25 C 270.75 -84.820312 271.046875 -116.238281 271.046875 -154.5 C 271.046875 -173.039062 270.96875 -189.890625 270.8125 -205.046875 C 270.664062 -220.203125 270.445312 -233.8125 270.15625 -245.875 C 270.15625 -248.226562 269.050781 -249.476562 266.84375 -249.625 C 264.632812 -249.78125 263.238281 -248.679688 262.65625 -246.328125 C 260.59375 -234.554688 258.238281 -220.941406 255.59375 -205.484375 C 252.945312 -190.035156 250.148438 -173.039062 247.203125 -154.5 C 241.023438 -115.363281 236.171875 -83.359375 232.640625 -58.484375 C 229.109375 -33.617188 226.898438 -16.625 226.015625 -7.5 C 225.128906 -2.5 222.1875 0 217.1875 0 L 142.578125 0 C 137.285156 0 134.34375 -2.5 133.75 -7.5 C 132.570312 -16.625 130.289062 -33.617188 126.90625 -58.484375 C 123.53125 -83.359375 118.601562 -115.363281 112.125 -154.5 C 109.175781 -173.039062 106.378906 -190.035156 103.734375 -205.484375 C 101.085938 -220.941406 98.734375 -234.554688 96.671875 -246.328125 C 96.378906 -248.679688 95.128906 -249.78125 92.921875 -249.625 C 90.710938 -249.476562 89.609375 -248.226562 89.609375 -245.875 C 89.316406 -233.8125 89.097656 -220.203125 88.953125 -205.046875 C 88.804688 -189.890625 88.734375 -173.039062 88.734375 -154.5 C 88.734375 -116.238281 89.023438 -84.820312 89.609375 -60.25 C 90.203125 -35.675781 90.644531 -18.535156 90.9375 -8.828125 C 90.9375 -6.472656 90.125 -4.410156 88.5 -2.640625 C 86.882812 -0.878906 84.753906 0 82.109375 0 L 30.90625 0 C 28.25 0 26.113281 -0.878906 24.5 -2.640625 C 22.882812 -4.410156 22.078125 -6.472656 22.078125 -8.828125 C 22.367188 -18.535156 22.804688 -35.675781 23.390625 -60.25 C 23.984375 -84.820312 24.28125 -116.238281 24.28125 -154.5 C 24.28125 -193.050781 23.984375 -224.539062 23.390625 -248.96875 C 22.804688 -273.394531 22.367188 -290.460938 22.078125 -300.171875 C 22.078125 -302.523438 22.882812 -304.582031 24.5 -306.34375 C 26.113281 -308.113281 28.25 -309 30.90625 -309 L 131.109375 -309 C 136.109375 -309 138.90625 -306.5 139.5 -301.5 C 140.675781 -292.375 142.953125 -275.453125 146.328125 -250.734375 C 149.710938 -226.015625 154.644531 -193.9375 161.125 -154.5 C 164.0625 -136.550781 166.78125 -120.070312 169.28125 -105.0625 C 171.789062 -90.050781 174.078125 -76.660156 176.140625 -64.890625 C 176.429688 -62.828125 177.601562 -61.796875 179.65625 -61.796875 C 181.71875 -61.796875 182.898438 -62.828125 183.203125 -64.890625 C 185.554688 -76.660156 187.984375 -90.050781 190.484375 -105.0625 C 192.984375 -120.070312 195.703125 -136.550781 198.640625 -154.5 C 204.828125 -193.9375 209.6875 -226.015625 213.21875 -250.734375 C 216.75 -275.453125 218.953125 -292.375 219.828125 -301.5 C 220.421875 -306.5 223.367188 -309 228.671875 -309 Z M 328.875 -309 "/></g></g></g><g fill="#77bafe" fill-opacity="1"><g transform="translate(0.0000045, 331.446603)"><g><path d="M 328.867188 -317.28125 C 333.507812 -317.28125 337.519531 -315.589844 340.902344 -312.210938 C 344.285156 -308.828125 345.976562 -304.816406 345.976562 -300.175781 L 345.976562 -300.070312 L 344.648438 -248.753906 C 344.0625 -224.40625 343.769531 -192.988281 343.769531 -154.503906 C 343.769531 -116.3125 344.0625 -84.960938 344.648438 -60.453125 L 345.976562 -8.933594 L 345.976562 -8.828125 C 345.976562 -4.1875 344.285156 -0.175781 340.902344 3.203125 C 337.519531 6.585938 333.507812 8.277344 328.867188 8.277344 L 277.222656 8.277344 C 272.582031 8.277344 268.570312 6.585938 265.1875 3.203125 C 261.511719 -0.46875 259.992188 -4.824219 260.621094 -9.855469 L 268.832031 -8.828125 L 260.558594 -9.042969 L 261.882812 -60.46875 C 262.46875 -84.964844 262.761719 -116.3125 262.761719 -154.503906 C 262.761719 -173.015625 262.6875 -189.835938 262.542969 -204.964844 C 262.394531 -220.082031 262.175781 -233.652344 261.882812 -245.675781 L 261.878906 -245.777344 L 261.878906 -245.878906 C 261.878906 -244.96875 262.292969 -244.046875 263.121094 -243.105469 C 264.074219 -242.027344 265.132812 -241.449219 266.296875 -241.371094 C 267.3125 -241.304688 268.304688 -241.652344 269.273438 -242.417969 C 270.050781 -243.03125 270.523438 -243.664062 270.683594 -244.3125 L 262.652344 -246.320312 L 270.8125 -244.910156 L 263.746094 -204.078125 C 261.105469 -188.667969 258.316406 -171.710938 255.378906 -153.203125 C 249.207031 -114.109375 244.359375 -82.152344 240.832031 -57.324219 C 237.316406 -32.582031 235.125 -15.707031 234.253906 -6.707031 L 234.222656 -6.382812 L 234.167969 -6.066406 C 233.378906 -1.605469 231.492188 1.894531 228.507812 4.429688 C 225.488281 6.996094 221.714844 8.277344 217.1875 8.277344 L 142.582031 8.277344 C 137.90625 8.277344 134.058594 6.996094 131.042969 4.429688 C 127.917969 1.777344 126.082031 -1.878906 125.535156 -6.539062 L 118.707031 -57.390625 C 115.335938 -82.167969 110.417969 -114.089844 103.957031 -153.152344 C 101.015625 -171.691406 98.222656 -188.671875 95.578125 -204.089844 L 88.484375 -245.101562 L 88.460938 -245.292969 C 88.570312 -244.398438 89.097656 -243.535156 90.039062 -242.707031 C 91.136719 -241.738281 92.28125 -241.292969 93.472656 -241.371094 C 94.636719 -241.449219 95.695312 -242.027344 96.644531 -243.105469 C 97.476562 -244.046875 97.890625 -244.96875 97.890625 -245.878906 L 97.890625 -245.777344 L 97.886719 -245.675781 C 97.59375 -233.652344 97.375 -220.082031 97.226562 -204.964844 C 97.078125 -189.835938 97.007812 -173.015625 97.007812 -154.503906 C 97.007812 -116.308594 97.300781 -84.960938 97.886719 -60.453125 L 99.214844 -8.933594 L 99.214844 -8.828125 C 99.214844 -4.328125 97.679688 -0.402344 94.609375 2.945312 C 91.351562 6.5 87.183594 8.277344 82.105469 8.277344 L 30.902344 8.277344 C 25.824219 8.277344 21.65625 6.5 18.398438 2.945312 C 15.328125 -0.402344 13.792969 -4.328125 13.792969 -8.828125 L 13.792969 -8.933594 L 15.121094 -60.46875 C 15.707031 -84.964844 16 -116.308594 16 -154.503906 C 16 -192.988281 15.707031 -224.410156 15.121094 -248.769531 L 13.792969 -300.070312 L 13.792969 -300.175781 C 13.792969 -304.675781 15.328125 -308.601562 18.398438 -311.949219 C 21.65625 -315.503906 25.824219 -317.28125 30.902344 -317.28125 L 131.105469 -317.28125 C 135.714844 -317.28125 139.503906 -315.953125 142.476562 -313.296875 C 145.429688 -310.652344 147.175781 -307.042969 147.714844 -302.46875 L 154.539062 -251.839844 C 157.914062 -227.203125 162.828125 -195.207031 169.292969 -155.84375 L 177.457031 -106.410156 L 184.3125 -66.171875 L 184.328125 -66.0625 C 184.183594 -67.058594 183.636719 -67.972656 182.6875 -68.804688 C 181.714844 -69.652344 180.707031 -70.078125 179.664062 -70.078125 C 178.621094 -70.078125 177.613281 -69.652344 176.640625 -68.804688 C 175.6875 -67.972656 175.144531 -67.058594 175 -66.0625 L 175.03125 -66.289062 L 175.078125 -66.515625 C 177.414062 -78.199219 179.828125 -91.5 182.3125 -106.421875 L 190.476562 -155.851562 C 196.644531 -195.203125 201.492188 -227.222656 205.019531 -251.90625 C 208.53125 -276.5 210.722656 -293.300781 211.59375 -302.296875 C 212.15625 -307.066406 213.996094 -310.78125 217.121094 -313.4375 C 220.140625 -316 223.984375 -317.28125 228.664062 -317.28125 Z M 328.867188 -300.726562 L 228.664062 -300.726562 C 228.15625 -300.726562 227.78125 -300.6875 227.535156 -300.613281 C 227.605469 -300.632812 227.707031 -300.703125 227.84375 -300.820312 C 228.019531 -300.96875 228.140625 -301.113281 228.207031 -301.257812 C 228.148438 -301.132812 228.105469 -300.949219 228.074219 -300.703125 C 227.179688 -291.453125 224.957031 -274.410156 221.40625 -249.5625 C 217.871094 -224.804688 213.007812 -192.667969 206.8125 -153.152344 L 198.644531 -103.699219 C 196.128906 -88.605469 193.683594 -75.125 191.3125 -63.265625 L 183.195312 -64.890625 L 191.390625 -63.71875 C 190.953125 -60.664062 189.671875 -58.207031 187.542969 -56.34375 C 185.394531 -54.464844 182.765625 -53.523438 179.664062 -53.523438 C 176.558594 -53.523438 173.933594 -54.464844 171.785156 -56.34375 C 169.65625 -58.207031 168.375 -60.664062 167.9375 -63.71875 L 176.132812 -64.890625 L 167.972656 -63.5 L 161.121094 -103.710938 L 152.953125 -153.160156 C 146.46875 -192.667969 141.527344 -224.824219 138.132812 -249.628906 L 131.273438 -300.53125 C 131.222656 -300.9375 131.164062 -301.21875 131.089844 -301.378906 C 131.148438 -301.253906 131.261719 -301.113281 131.433594 -300.957031 C 131.613281 -300.800781 131.773438 -300.699219 131.917969 -300.652344 C 131.761719 -300.703125 131.492188 -300.726562 131.105469 -300.726562 L 30.902344 -300.726562 C 30.671875 -300.726562 30.53125 -300.714844 30.480469 -300.691406 C 30.542969 -300.71875 30.585938 -300.742188 30.601562 -300.761719 C 30.433594 -300.578125 30.351562 -300.382812 30.351562 -300.175781 L 22.070312 -300.175781 L 30.347656 -300.390625 L 31.671875 -249.167969 C 32.261719 -224.675781 32.558594 -193.121094 32.558594 -154.503906 C 32.558594 -116.179688 32.261719 -84.691406 31.671875 -60.042969 L 30.347656 -8.617188 L 22.070312 -8.828125 L 30.351562 -8.828125 C 30.351562 -8.621094 30.433594 -8.425781 30.601562 -8.242188 C 30.585938 -8.261719 30.542969 -8.285156 30.480469 -8.3125 C 30.53125 -8.289062 30.671875 -8.277344 30.902344 -8.277344 L 82.105469 -8.277344 C 82.335938 -8.277344 82.476562 -8.289062 82.527344 -8.3125 C 82.464844 -8.285156 82.421875 -8.261719 82.40625 -8.242188 C 82.574219 -8.425781 82.65625 -8.621094 82.65625 -8.828125 L 90.933594 -8.828125 L 82.660156 -8.617188 L 81.335938 -60.058594 C 80.746094 -84.695312 80.449219 -116.179688 80.449219 -154.503906 C 80.449219 -173.070312 80.523438 -189.945312 80.671875 -205.125 C 80.820312 -220.324219 81.039062 -233.976562 81.335938 -246.082031 L 89.609375 -245.878906 L 81.332031 -245.878906 C 81.332031 -249.144531 82.300781 -251.871094 84.230469 -254.058594 C 86.285156 -256.390625 89 -257.667969 92.371094 -257.890625 C 95.769531 -258.117188 98.644531 -257.195312 100.992188 -255.121094 C 103.183594 -253.1875 104.480469 -250.597656 104.886719 -247.347656 L 96.675781 -246.320312 L 104.832031 -247.730469 L 111.894531 -206.886719 C 114.550781 -191.402344 117.347656 -174.390625 120.292969 -155.851562 C 126.777344 -116.632812 131.722656 -84.546875 135.117188 -59.589844 L 141.976562 -8.472656 C 142.019531 -8.113281 142.070312 -7.871094 142.128906 -7.746094 C 142.058594 -7.890625 141.9375 -8.035156 141.765625 -8.183594 C 141.625 -8.300781 141.523438 -8.371094 141.457031 -8.390625 C 141.703125 -8.316406 142.078125 -8.277344 142.582031 -8.277344 L 217.1875 -8.277344 C 217.589844 -8.277344 217.882812 -8.308594 218.066406 -8.363281 C 217.992188 -8.34375 217.898438 -8.28125 217.785156 -8.183594 C 217.679688 -8.09375 217.613281 -8.027344 217.589844 -7.980469 C 217.695312 -8.183594 217.785156 -8.503906 217.863281 -8.941406 L 226.015625 -7.503906 L 217.773438 -8.300781 C 218.667969 -17.546875 220.890625 -34.664062 224.441406 -59.652344 C 227.976562 -84.5625 232.839844 -116.613281 239.027344 -155.800781 C 241.976562 -174.375 244.777344 -191.40625 247.433594 -206.898438 L 254.546875 -248.03125 L 254.621094 -248.328125 C 255.375 -251.332031 256.835938 -253.691406 259.015625 -255.410156 C 261.378906 -257.28125 264.175781 -258.105469 267.398438 -257.890625 C 270.769531 -257.667969 273.480469 -256.390625 275.539062 -254.058594 C 277.46875 -251.871094 278.4375 -249.144531 278.4375 -245.878906 L 270.15625 -245.878906 L 278.433594 -246.082031 C 278.730469 -233.972656 278.949219 -220.324219 279.097656 -205.125 C 279.246094 -189.945312 279.320312 -173.070312 279.320312 -154.503906 C 279.320312 -116.179688 279.023438 -84.691406 278.433594 -60.042969 L 277.097656 -8.207031 L 277.046875 -7.800781 C 277.089844 -8.125 277.039062 -8.359375 276.894531 -8.503906 C 277.042969 -8.351562 277.152344 -8.277344 277.222656 -8.277344 L 328.867188 -8.277344 C 328.9375 -8.277344 329.046875 -8.351562 329.195312 -8.503906 C 329.34375 -8.652344 329.417969 -8.761719 329.417969 -8.828125 L 337.699219 -8.828125 L 329.421875 -8.617188 L 328.097656 -60.058594 C 327.507812 -84.695312 327.210938 -116.179688 327.210938 -154.503906 C 327.210938 -193.121094 327.507812 -224.679688 328.097656 -249.183594 L 329.421875 -300.390625 L 337.699219 -300.175781 L 329.417969 -300.175781 C 329.417969 -300.242188 329.34375 -300.351562 329.195312 -300.503906 C 329.046875 -300.652344 328.9375 -300.726562 328.867188 -300.726562 Z M 328.867188 -300.726562 "/></g></g></g></g></g></svg>